<svg width="526" height="366" viewBox="0 0 526 366" fill="none" xmlns="http://www.w3.org/2000/svg">
<path d="M63.7405 331.219C63.7405 331.219 9.88695 266.078 54.633 195.552C94.3345 132.979 122.423 166.283 160.429 104.434C251.444 -43.6857 482.436 66.1417 451.842 199.734C437.037 264.384 496.899 266.733 466.398 331.356L63.7405 331.219Z" fill="#A0BABF"/>
<path d="M358.63 318.998C358.42 315.688 358.684 313.534 358.684 313.534C359.163 302.373 355.635 294.745 355.635 294.745C355.635 294.745 336.199 293.351 337.779 276.572C337.779 276.572 340.08 265.559 345.334 260.246C345.334 260.246 350.079 280.1 353.528 280.1C353.633 280.1 353.737 280.081 353.839 280.043C357.305 278.757 346.701 257 346.701 257C346.701 257 359.133 239.754 365.764 237.062C365.764 237.062 364.023 259.229 366.564 259.227C366.68 259.227 366.804 259.181 366.938 259.086C370.013 256.89 373.041 231.79 373.041 231.79C373.041 231.79 380.865 225.447 387.991 225.447C390.76 225.447 393.425 226.406 395.481 229.067C402.831 238.575 400.886 246.322 398.726 248.311C396.566 250.298 380.73 258.453 382.116 260.51C382.476 261.046 383.566 261.304 385.07 261.304C389.355 261.304 397.007 259.198 400.743 255.345C400.743 255.345 401.926 276.804 392.952 280.466C390.108 281.626 387.646 281.966 385.431 281.966C383.85 281.966 382.395 281.793 381.02 281.619C379.645 281.445 378.35 281.271 377.086 281.271C375.796 281.271 374.54 281.452 373.266 282.001C367.756 284.376 364.557 288.037 367.899 288.214C367.948 288.218 367.999 288.218 368.052 288.218C369.543 288.218 371.958 287.156 374.699 286.097C377.441 285.035 380.51 283.974 383.309 283.974C384.176 283.974 385.016 284.075 385.811 284.309C391.849 286.086 396.399 286.739 389.21 292.804C383.89 297.293 374.404 302.009 367.482 302.009C365.051 302.009 362.935 301.427 361.429 300.049C360.369 301.785 360.121 307.513 360.091 311.821V311.828C360.129 312.538 360.137 313.545 360.105 314.928V314.932V314.934C360.114 315.541 360.124 316.039 360.134 316.387L360.136 316.411V316.422C360.169 316.972 360.225 317.536 360.303 318.107L358.63 318.998ZM360.705 299.384C361.12 299.856 361.429 300.049 361.429 300.049C361.176 299.816 360.936 299.597 360.705 299.384Z" fill="#CDE0FB"/>
<path d="M118.72 201.648C120.657 180.68 152.013 181.415 152.013 181.415C152.013 181.415 177.839 212.792 183.973 212.534C190.108 212.276 166.599 180.907 166.599 180.907C178.063 177.532 210.081 188.025 210.081 188.025C210.081 188.025 214.222 229.363 220.111 227.432C225.999 225.502 214.766 191.039 214.766 191.039C226.591 192.752 239.263 205.478 239.263 205.478C255.915 226.929 230.314 249.627 230.314 249.627C230.314 249.627 232.027 263.919 242.313 278.797C242.313 278.797 244.537 281.485 247.098 286.276L244.026 286.834C243.64 285.963 243.234 285.127 242.802 284.331L242.793 284.316L242.775 284.281C242.486 283.791 242.073 283.096 241.562 282.246L241.561 282.243L241.557 282.239C240.318 280.363 239.462 278.969 238.901 277.95L238.896 277.94C235.138 272.03 229.857 264.398 226.897 263.134C226.897 263.134 227.158 262.539 227.324 261.445C227.188 261.983 227.046 262.545 226.897 263.134C223.479 276.641 197.483 283.52 182.338 282.841C167.194 282.16 172.904 276.398 179.7 267.493C186.493 258.588 203.315 257.547 207.77 253.73C212.225 249.914 204.655 248.283 195.008 250.899C185.362 253.514 182.075 265.279 166.54 269.824C151.003 274.37 134.127 243.511 134.127 243.511C145.576 245.293 164.132 235.043 164.269 230.725C164.406 226.404 135.536 232.088 130.842 231.654C126.149 231.219 116.784 222.616 118.72 201.648Z" fill="#DFEBFA"/>
<path d="M343.471 89.4376C329.458 77.1015 309.276 101.199 309.276 101.199C309.276 101.199 311.351 141.291 307.159 145.741C302.966 150.192 299.373 111.85 299.373 111.85C289.78 118.262 275.093 149.279 275.093 149.279C275.093 149.279 297.484 179.591 292.438 182.755C287.39 185.921 273.841 154.789 273.841 154.789C267.103 164.821 266.5 182.736 266.5 182.736C268.577 209.389 299.21 205.041 299.21 205.041C299.21 205.041 306.766 215.731 309.04 233.266C309.04 233.266 309.211 236.711 310.435 241.791L312.797 239.843C312.521 238.98 312.281 238.123 312.081 237.276L312.077 237.26L312.069 237.223C311.961 236.683 311.809 235.914 311.63 234.97V234.967L311.629 234.963C311.305 232.796 311.02 231.231 310.771 230.139L310.767 230.13C309.648 223.412 308.486 214.414 309.666 211.352C309.666 211.352 309.132 211.158 308.358 210.563C308.775 210.816 309.211 211.078 309.666 211.352C320.12 217.666 341.402 202.614 350.952 190.761C360.502 178.908 353.243 179.417 343.363 178.676C333.484 177.935 321.785 189.919 316.535 190.763C311.285 191.605 315.275 184.834 323.209 179.289C331.145 173.744 340.455 179.009 353.437 170.3C366.42 161.591 358.773 128.579 358.773 128.579C352.323 138.375 333.888 145.606 331.173 142.868C328.459 140.129 350.906 122.127 353.728 118.306C356.552 114.487 357.486 101.774 343.471 89.4376Z" fill="#DFEBFA"/>
<path d="M184.718 300.524C184.322 291.455 197.718 289.506 197.718 289.506C197.718 289.506 210.543 301.004 213.14 300.451C215.737 299.899 203.899 288.236 203.899 288.236C208.585 285.972 222.83 288.13 222.83 288.13C222.83 288.13 227 305.434 229.395 304.188C231.79 302.94 225.001 289.076 225.001 289.076C230.136 288.951 236.273 293.457 236.273 293.457C244.613 301.39 235.032 312.903 235.032 312.903C235.032 312.903 236.593 318.865 241.84 324.457V324.459C241.84 324.459 242.943 325.442 244.314 327.297L243.037 327.757C242.823 327.414 242.601 327.087 242.371 326.779L242.366 326.774L242.356 326.761C242.205 326.573 241.988 326.305 241.722 325.982L241.72 325.98H241.718C241.082 325.27 240.635 324.737 240.338 324.344L240.334 324.34C238.391 322.095 235.697 319.225 234.363 318.901C234.363 318.901 234.44 318.629 234.446 318.151C234.42 318.391 234.392 318.64 234.363 318.901C233.694 324.9 223.026 329.704 216.536 330.507C210.047 331.31 212.144 328.445 214.519 324.163C216.893 319.88 223.995 318.224 225.67 316.277C227.345 314.33 224.028 314.182 220.072 315.992C216.117 317.801 215.402 323.048 209.05 326.106C202.699 329.162 193.716 317.24 193.716 317.24C198.696 317.172 206.001 311.468 205.807 309.618C205.615 307.769 193.652 312.273 191.628 312.427C189.603 312.58 185.116 309.592 184.718 300.524Z" fill="#D9E8FA"/>
<path d="M202.323 146.502C197.036 149.527 188.293 152.261 185.203 160.017C184.108 162.766 184.697 172.401 188.405 171.839C190.445 171.528 191.032 168.481 191.147 165.802C191.262 163.143 192.723 160.786 194.893 159.668L219.023 147.884L214.481 137.488C214.481 137.488 204.644 145.176 202.323 146.502Z" fill="#ED7D2B"/>
<path d="M441.534 330.643H295.425C295.425 332.586 269.134 330.643 269.134 330.643C269.134 330.643 270.987 320.632 275.369 317.816C276.36 317.179 283.662 319.121 285.45 319.035C284.693 318.508 269.228 313.17 272.695 286.834L264.44 329.29C264.326 330.072 263.722 330.643 263.012 330.643H230.664C229.966 330.643 229.369 330.092 229.241 329.329C228.756 326.467 227.955 319.663 230.505 316.202C232.515 313.475 238.843 314.09 243.443 314.978C244.475 315.175 245.42 315.388 246.211 315.58C247.273 315.836 248.205 314.751 247.92 313.58C247.92 313.58 245.515 305.716 241.138 294.787C236.758 283.859 230.406 269.861 222.506 257.593C220.923 255.137 219.281 252.749 217.58 250.468C211.467 242.285 207.326 222.614 212.675 213.929C213.377 212.792 216.53 209.039 215.395 209.594C213.065 210.741 211.381 212.631 210.229 214.394C209.424 215.627 207.663 215.02 207.617 213.491C206.973 192.979 220.89 175.448 226.349 166.506C228.128 163.591 229.009 161.589 228.195 160.692C224.686 156.807 209.177 166.656 202.173 166.378C198.024 166.217 194.875 164.588 192.999 163.293C192.575 162.998 192.352 162.528 192.32 162.045C192.281 161.437 192.542 160.811 193.098 160.491C197.123 158.163 203.205 155.307 208.01 151.447C210.428 149.509 212.594 146.1 213.855 143.132C214.809 140.877 214.481 138.125 214.481 138.125C209.05 143.289 201.885 147.546 195.759 149.872C191.679 151.42 188.06 152.111 185.722 151.647C179.696 150.448 175.901 144.285 173.762 139.27C172.83 137.085 172.216 135.12 171.869 133.877C171.65 133.096 171.99 132.263 172.658 131.928C173.638 131.438 175.189 130.658 177.093 129.683C185.918 125.165 195.708 121.585 197.459 118.461C198.059 117.391 198.611 116.203 199.16 114.93L199.167 114.917C201.783 108.834 204.328 100.818 211.662 94.3457C223.055 84.2935 234.67 82.3738 239.517 82.0298C241.005 81.9218 241.855 81.9621 241.866 81.9621C249.421 81.6272 255.028 82.8734 259.206 85.2926H259.21C275.4 94.6622 270.134 121.613 273.527 142.195C273.658 142.996 273.803 143.789 273.964 144.568C275.359 151.374 293.202 169.822 293.909 181.033C295.257 202.422 309.632 204.42 341.415 226.064C359.791 238.579 361.106 272.485 359.45 298.264C359.041 304.651 363.063 310.35 368.736 311.4C376.463 312.829 385.063 313.431 392.991 311.79C414.736 307.286 419.286 266.192 406.138 259.999C406.138 259.999 428.455 252.679 439.292 271.821C450.131 290.961 450.131 321.35 441.534 330.643Z" fill="#F1A34F"/>
<path d="M244.868 87.8986C238.467 87.8986 233 93.3263 231.979 100.72C230.434 111.925 228.9 128.098 230.84 139.219C233.735 155.812 246.592 161.885 254.84 156.97C270.08 147.888 263.117 112.783 258.882 96.4044C257.574 91.3499 253.585 87.8986 249.073 87.8986H244.868" fill="#ED7D2B"/>
<path d="M210.147 116.673C209.723 116.673 209.302 116.478 209.001 116.093C208.452 115.389 208.52 114.322 209.151 113.711C209.333 113.535 213.696 109.41 220.777 111.279C221.592 111.493 222.097 112.402 221.903 113.31C221.711 114.218 220.894 114.779 220.078 114.563C214.495 113.092 211.174 116.227 211.141 116.26C210.855 116.538 210.5 116.673 210.147 116.673Z" fill="#E07F20"/>
<path d="M173.762 139.27C172.83 137.087 172.216 135.12 171.869 133.875C171.65 133.098 171.992 132.261 172.659 131.928C173.638 131.438 175.191 130.658 177.091 129.685C177.091 129.685 178.335 137.539 173.762 139.27Z" fill="#BC6211"/>
<path d="M441.534 330.643H415.828C445.174 323.928 439.024 298.877 439.024 298.877C435.992 305.068 419.054 306.194 419.054 306.194C419.054 306.194 430.431 294.374 429.418 276.925C428.596 262.744 413.735 260.433 408.197 260.065C406.922 259.981 406.139 259.999 406.139 259.999C406.139 259.999 428.455 252.679 439.294 271.819C450.133 290.961 450.133 321.35 441.534 330.643Z" fill="#FFDABB"/>
<path d="M259.205 85.2909C259.205 85.2909 273.505 89.4889 276.538 102.154C276.538 102.154 274.639 100.099 273.291 99.4733C273.291 99.4733 276.975 102.976 276.538 111.859C276.101 120.74 271.6 134.875 273.962 144.57L264.977 127.181L259.205 85.2909Z" fill="#F1A34F"/>
<path d="M199.158 114.929C199.158 114.929 203.284 103.351 199.158 99.0359C199.158 99.0359 202.028 98.0989 203.462 99.0359C203.462 99.0359 203.966 90.2171 214.079 86.2771C224.191 82.3371 239.521 82.0279 239.521 82.0279L213.068 103.915L199.158 114.929Z" fill="#F1A34F"/>
<path d="M408.6 138.359H384.642C383.541 138.359 382.642 137.358 382.642 136.134V110.389C382.642 109.165 383.541 108.162 384.642 108.162H408.6C409.7 108.162 410.601 109.165 410.601 110.389V136.134C410.601 137.358 409.7 138.359 408.6 138.359Z" fill="#C0D8FB"/>
<path d="M407.563 137.052H385.68C384.675 137.052 383.853 136.137 383.853 135.019V111.504C383.853 110.386 384.675 109.471 385.68 109.471H407.563C408.567 109.471 409.389 110.386 409.389 111.504V135.019C409.389 136.137 408.567 137.052 407.563 137.052Z" fill="#DFEBFD"/>
<path d="M396.042 112.227C396.042 111.87 396.302 111.582 396.62 111.582C396.941 111.582 397.201 111.87 397.201 112.227C397.201 112.583 396.941 112.871 396.62 112.871C396.302 112.871 396.042 112.583 396.042 112.227Z" fill="#D1D5D1"/>
<path d="M400.715 113.138C400.871 112.827 401.223 112.715 401.502 112.887C401.782 113.061 401.884 113.453 401.728 113.764C401.573 114.075 401.22 114.188 400.94 114.015C400.661 113.843 400.56 113.449 400.715 113.138Z" fill="#D1D5D1"/>
<path d="M404.719 116.679C404.987 116.487 405.345 116.573 405.52 116.871C405.692 117.171 405.615 117.57 405.347 117.762C405.078 117.956 404.719 117.87 404.547 117.57C404.372 117.272 404.45 116.873 404.719 116.679Z" fill="#D1D5D1"/>
<path d="M406.702 122.16C407.022 122.16 407.282 122.449 407.282 122.806C407.282 123.161 407.022 123.45 406.702 123.45C406.383 123.45 406.123 123.161 406.123 122.806C406.123 122.449 406.383 122.16 406.702 122.16Z" fill="#D1D5D1"/>
<path d="M405.689 128.521C405.916 128.773 405.916 129.182 405.689 129.432C405.464 129.685 405.097 129.685 404.87 129.432C404.644 129.182 404.644 128.773 404.87 128.521C405.097 128.268 405.464 128.268 405.689 128.521Z" fill="#D1D5D1"/>
<path d="M402.053 132.58C402.278 132.832 402.278 133.241 402.053 133.493C401.826 133.744 401.46 133.744 401.233 133.493C401.008 133.241 401.008 132.832 401.233 132.58C401.46 132.329 401.826 132.329 402.053 132.58Z" fill="#D1D5D1"/>
<path d="M396.042 134.673C396.042 134.317 396.302 134.027 396.62 134.027C396.941 134.027 397.201 134.317 397.201 134.673C397.201 135.028 396.941 135.318 396.62 135.318C396.302 135.318 396.042 135.028 396.042 134.673Z" fill="#D1D5D1"/>
<path d="M392.509 113.138C392.353 112.827 392 112.715 391.72 112.887C391.441 113.061 391.341 113.453 391.497 113.764C391.651 114.075 392.005 114.188 392.284 114.015C392.564 113.843 392.664 113.449 392.509 113.138Z" fill="#D1D5D1"/>
<path d="M388.505 116.679C388.236 116.487 387.877 116.573 387.705 116.871C387.53 117.171 387.608 117.57 387.877 117.762C388.145 117.956 388.504 117.87 388.678 117.57C388.851 117.272 388.773 116.873 388.505 116.679Z" fill="#D1D5D1"/>
<path d="M386.521 122.16C386.202 122.16 385.943 122.449 385.943 122.806C385.943 123.161 386.202 123.45 386.521 123.45C386.842 123.45 387.101 123.161 387.101 122.806C387.101 122.449 386.842 122.16 386.521 122.16Z" fill="#D1D5D1"/>
<path d="M387.534 128.521C387.309 128.773 387.309 129.182 387.534 129.432C387.761 129.685 388.127 129.685 388.354 129.432C388.579 129.182 388.579 128.773 388.354 128.521C388.127 128.268 387.761 128.268 387.534 128.521Z" fill="#D1D5D1"/>
<path d="M391.171 132.58C390.945 132.832 390.945 133.241 391.171 133.493C391.398 133.744 391.765 133.744 391.99 133.493C392.217 133.241 392.217 132.832 391.99 132.58C391.765 132.329 391.398 132.329 391.171 132.58Z" fill="#D1D5D1"/>
<path d="M396.464 122.806C396.464 122.449 396.724 122.16 397.045 122.16C397.363 122.16 397.623 122.449 397.623 122.806C397.623 123.161 397.363 123.45 397.045 123.45C396.724 123.45 396.464 123.161 396.464 122.806Z" fill="#D1D5D1"/>
<path d="M397.123 122.804H396.966V114.75H397.123V122.804Z" fill="#D1D5D1"/>
<path d="M397.117 123.002L396.824 122.586L400.661 119.234L400.953 119.649L397.117 123.002Z" fill="#D1D5D1"/>
<path d="M305.693 241.415C305.693 241.415 305.603 241.727 305.197 242.08C304.909 242.488 304.59 242.991 304.523 243.3C304.395 243.89 303.755 243.981 303.604 243.432C303.553 243.249 303.546 243.053 303.579 242.852C302.535 243.114 300.989 243.207 298.702 242.856C298.702 242.856 296.924 242.665 298.357 241.287C299.315 240.367 299.968 240.511 301.336 239.238C302.705 237.964 304.49 237.499 305.652 238.189L307.135 238.332L307.593 241.117L305.693 241.415Z" fill="#FFB27D"/>
<path d="M323.268 186.607C323.268 186.607 334.669 199.234 326.649 221.801C324.484 227.894 306.811 241.845 306.811 241.845C306.811 241.845 304.766 239.787 305.317 237.838C305.317 237.838 316.902 220.18 318.579 219.34C320.066 218.595 318.133 198.707 319.116 193.766C320.099 188.823 323.268 186.607 323.268 186.607Z" fill="#5FBA96"/>
<path d="M364.825 317.379C364.825 317.379 367.306 319.899 366.821 321.69C366.338 323.48 364.099 324.675 363.796 326.864C363.494 329.052 362.284 330.245 361.194 330.245C360.106 330.245 356.003 330.245 356.003 330.245C356.003 330.245 355.201 328.706 357.138 328.242C359.074 327.777 359.804 325.206 359.682 322.817C359.562 320.429 359.865 317.247 359.865 317.247L363.977 316.186L364.825 317.379Z" fill="#233862"/>
<path d="M364.825 315.798C364.372 317.293 359.38 319.48 359.38 319.48C359.38 319.48 356.658 314.705 347.944 297.593C347.194 296.118 346.41 294.502 345.603 292.778C337.048 274.48 325.982 244.071 325.982 244.071L347.129 237.505C347.129 237.505 348.127 246.955 348.307 251.731C348.419 254.65 349.91 260.885 351.804 266.331C353.008 269.797 354.378 272.943 355.658 274.71C361.494 282.766 364.825 315.798 364.825 315.798Z" fill="#B5453C"/>
<path d="M351.804 266.331C350.474 273.836 348.034 286.404 345.603 292.778C337.048 274.48 325.982 244.071 325.982 244.071L347.129 237.505C347.129 237.505 348.127 246.955 348.307 251.731C348.419 254.65 349.91 260.885 351.804 266.331Z" fill="#93312C"/>
<path d="M334.393 323.897C334.393 323.897 334.839 329.632 333.749 330.231L319.811 330.198C319.811 330.198 319.811 328.408 322.05 328.009C324.289 327.612 328.222 326.152 328.886 322.904C329.552 319.654 334.393 323.897 334.393 323.897Z" fill="#233862"/>
<path d="M322.625 242.878C322.625 242.878 323.362 252.932 324.225 265.017C325.4 281.434 326.812 301.599 326.952 305.42C327.193 312.052 328.162 322.664 328.162 322.664C328.162 322.664 330.459 325.184 335.059 324.122C335.059 324.122 339.158 308.975 340.329 292.948C340.347 292.685 340.365 292.419 340.383 292.156C341.471 275.84 343.166 241.483 343.166 241.483L322.625 242.878Z" fill="#B5453C"/>
<path d="M330.057 184.38C330.057 184.38 322.755 191.824 317.397 190.975C317.397 190.975 318.47 188.329 319.545 186.177C319.203 185.068 318.922 184.103 318.723 183.278C318.227 181.38 318.067 180.284 318.067 180.284L321.051 176.681L323.875 173.239C324.784 181.331 330.057 184.38 330.057 184.38Z" fill="#FFB27D"/>
<path d="M352.139 255.32C342.891 264.978 321.598 266.51 321.419 266.391C320.35 261.489 318.968 253.336 317.763 245.778C317.262 242.625 316.788 239.582 316.386 236.915C315.58 231.638 315.036 227.859 315.023 227.74C315.023 227.74 314.988 227.451 314.931 226.968C314.837 226.226 314.693 225.019 314.535 223.677C314.365 222.239 314.181 220.641 314.032 219.283C313.976 218.791 313.928 218.332 313.885 217.922C313.885 217.9 313.881 217.878 313.881 217.856C313.802 216.959 313.892 214.879 314.104 212.267C314.171 211.425 314.254 210.529 314.344 209.599C314.346 209.575 314.349 209.555 314.351 209.53C314.908 203.946 315.86 197.184 316.869 193.931C317.395 192.256 319.249 187.339 319.249 187.339C321.072 187.412 322.264 186.603 323.981 185.256C325.864 183.792 327.89 182.217 328.288 182.455C331.271 184.149 333.783 188.706 335.647 194.774C336.714 198.27 352.598 254.838 352.139 255.32Z" fill="#6EE7B7"/>
<path d="M324.378 176.306C324.378 176.306 322.798 181.245 318.723 183.278C318.227 181.38 318.067 180.284 318.067 180.284L321.051 176.681L324.378 176.306Z" fill="#ED985F"/>
<path d="M316.491 180.431C316.491 180.431 325.158 180.456 325.114 174.534C325.071 168.613 326.161 164.629 320.627 164.363C315.09 164.098 314.032 166.373 313.609 168.355C313.185 170.336 314.236 180.273 316.491 180.431Z" fill="#FFB27D"/>
<path d="M326.536 162.594C326.598 162.482 326.764 162.372 327.154 162.277C327.154 162.277 326.807 162.114 326.385 162.178C326.215 161.583 325.768 160.559 324.789 160.465C324.789 160.465 325.338 160.674 325.497 161.311C324.226 160.259 321.759 159.77 315.37 161.499C306.951 163.778 310.641 169.352 311.849 169.879C313.057 170.406 315.549 167.921 317.633 167.734C319.716 167.547 320.586 170.787 321.35 171.114C322.113 171.444 321.723 170.69 322.597 170.045C323.474 169.401 323.815 171.127 323.707 172.309C323.597 173.489 325.111 174.75 325.111 174.75C325.111 174.75 325.111 174.75 326.194 172.944C327.277 171.138 327.55 164.257 326.75 162.945C326.679 162.83 326.608 162.713 326.536 162.594Z" fill="#2C3A64"/>
<path d="M328.309 182.449C328.309 182.449 327.157 180.052 326.477 179.88C326.477 179.88 317.921 183.756 316.539 195.221C316.539 195.221 319.026 187.892 328.309 182.449Z" fill="#5FBA96"/>
<path d="M281.247 211.766L286.614 218.094L281.762 223.194L276.395 216.864C275.938 216.326 275.961 215.473 276.444 214.965L279.539 211.711C280.024 211.202 280.79 211.226 281.247 211.766Z" fill="#B0D0FF"/>
<path d="M299.25 230.243L291.932 237.935L290.549 236.304L297.867 228.613L299.25 230.243Z" fill="#1C468A"/>
<path d="M303.315 238.685L299.269 242.938L298.505 242.038L302.552 237.785L303.315 238.685Z" fill="#1C468A"/>
<path d="M301.894 239.327L299.925 241.397L294.606 235.124L296.575 233.054L301.894 239.327Z" fill="#1C468A"/>
<path d="M296.638 230.49C296.962 230.871 296.945 231.471 296.603 231.832L293.508 235.086C293.166 235.444 292.625 235.428 292.303 235.047L276.653 216.593C276.332 216.215 276.347 215.611 276.689 215.252L279.784 211.998C280.126 211.638 280.667 211.658 280.989 212.037L296.638 230.49ZM279.539 211.711L276.444 214.965C275.961 215.473 275.938 216.326 276.395 216.864L292.043 235.318C292.502 235.858 293.266 235.882 293.751 235.373L296.846 232.119C297.331 231.61 297.353 230.758 296.896 230.218L281.247 211.766C280.79 211.226 280.024 211.202 279.539 211.711Z" fill="#1C468A"/>
<path d="M278.616 212.955L277.615 214.008L276.385 212.558L277.386 211.506L278.616 212.955Z" fill="#1C468A"/>
<path d="M277.302 212.342L277.139 212.512L271.135 205.43L271.298 205.262L277.302 212.342Z" fill="#1C468A"/>
<path d="M280.682 214.178L278.606 216.359L278.425 216.147L280.501 213.965L280.682 214.178Z" fill="#1C468A"/>
<path d="M281.247 214.846L279.173 217.027L278.992 216.813L281.066 214.632L281.247 214.846Z" fill="#1C468A"/>
<path d="M281.859 215.567L279.784 217.748L279.604 217.534L281.678 215.353L281.859 215.567Z" fill="#1C468A"/>
<path d="M282.403 216.207L280.327 218.389L280.146 218.176L282.222 215.995L282.403 216.207Z" fill="#1C468A"/>
<path d="M283.384 216.339L280.388 219.487L280.207 219.274L283.203 216.125L283.384 216.339Z" fill="#1C468A"/>
<path d="M283.512 217.516L281.436 219.697L281.255 219.485L283.331 217.303L283.512 217.516Z" fill="#1C468A"/>
<path d="M284.078 218.184L282.003 220.365L281.823 220.151L283.897 217.969L284.078 218.184Z" fill="#1C468A"/>
<path d="M284.689 218.905L282.615 221.086L282.432 220.872L284.508 218.69L284.689 218.905Z" fill="#1C468A"/>
<path d="M285.233 219.545L283.157 221.727L282.977 221.514L285.052 219.333L285.233 219.545Z" fill="#1C468A"/>
<path d="M286.215 219.675L283.218 222.824L283.037 222.61L286.034 219.463L286.215 219.675Z" fill="#1C468A"/>
<path d="M286.343 220.854L284.267 223.035L284.086 222.821L286.162 220.641L286.343 220.854Z" fill="#1C468A"/>
<path d="M286.908 221.522L284.834 223.703L284.653 223.489L286.728 221.307L286.908 221.522Z" fill="#1C468A"/>
<path d="M287.52 222.243L285.445 224.424L285.263 224.21L287.339 222.028L287.52 222.243Z" fill="#1C468A"/>
<path d="M288.064 222.883L285.988 225.064L285.807 224.85L287.883 222.669L288.064 222.883Z" fill="#1C468A"/>
<path d="M289.045 223.013L286.049 226.162L285.868 225.948L288.863 222.801L289.045 223.013Z" fill="#1C468A"/>
<path d="M289.229 224.259L287.155 226.441L286.972 226.226L289.048 224.045L289.229 224.259Z" fill="#1C468A"/>
<path d="M289.796 224.925L287.72 227.107L287.54 226.894L289.614 224.713L289.796 224.925Z" fill="#1C468A"/>
<path d="M290.408 225.646L288.332 227.828L288.151 227.615L290.225 225.434L290.408 225.646Z" fill="#1C468A"/>
<path d="M290.95 226.289L288.876 228.47L288.693 228.256L290.769 226.074L290.95 226.289Z" fill="#1C468A"/>
<path d="M291.932 226.419L288.935 229.568L288.754 229.354L291.751 226.204L291.932 226.419Z" fill="#1C468A"/>
<path d="M291.964 227.484L289.89 229.665L289.709 229.451L291.784 227.27L291.964 227.484Z" fill="#1C468A"/>
<path d="M292.532 228.152L290.456 230.333L290.275 230.119L292.349 227.937L292.532 228.152Z" fill="#1C468A"/>
<path d="M293.143 228.873L291.067 231.054L290.886 230.84L292.961 228.658L293.143 228.873Z" fill="#1C468A"/>
<path d="M293.685 229.513L291.611 231.694L291.429 231.48L293.505 229.299L293.685 229.513Z" fill="#1C468A"/>
<path d="M294.667 229.643L291.67 232.792L291.489 232.578L294.486 229.431L294.667 229.643Z" fill="#1C468A"/>
<path d="M327.21 202.638C327.119 202.905 321.869 218.14 314.535 223.677C314.365 222.239 314.181 220.641 314.032 219.283C313.976 218.791 313.928 218.332 313.885 217.922C313.885 217.9 313.881 217.878 313.881 217.856C313.802 216.959 313.892 214.879 314.104 212.267C315.462 210.082 316.538 208.518 316.538 208.518L327.21 202.638Z" fill="#6EE7B7"/>
<path d="M283.231 223.63C283.231 223.63 280.069 220.908 279.089 220.987C278.109 221.068 278.499 223.174 279.11 224.353C279.796 225.676 280.711 226.882 281.724 226.909C282.735 226.935 283.57 226.728 283.57 226.728L283.231 223.63Z" fill="#FFB27D"/>
<path d="M283.443 223.447C283.443 223.447 282.817 222.281 282.46 222.206C282.104 222.133 280.864 222.263 280.6 222.427C280.335 222.592 282.59 224.226 283.008 224.093C283.427 223.957 283.443 223.447 283.443 223.447Z" fill="#FFB27D"/>
<path d="M328.6 189.379C328.6 189.379 331.784 208.662 311.921 223.399C306.559 227.378 282.838 227.658 282.838 227.658C282.838 227.658 282.151 224.384 283.739 223.013C283.739 223.013 304.059 215.17 306.038 215.58C307.794 215.942 317.199 196.703 320.853 192.939C324.507 189.174 328.6 189.379 328.6 189.379Z" fill="#6EE7B7"/>
<path d="M137.587 243.558C136.471 239.571 131.619 238.822 129.666 242.391C129.315 243.031 129.093 243.769 129.074 244.614C128.966 249.292 137.251 267.394 138.351 268.995C140.353 271.911 152.438 278.921 152.438 278.921L155.006 278.504C155.006 278.504 153.554 277.488 152.05 275.818C148.946 272.366 144.419 266.757 143.59 265.98C142.167 264.645 139.705 251.133 137.587 243.558Z" fill="#ED985F"/>
<path d="M141.094 220.678C141.161 220.378 135.232 223.661 134.932 224.032C132.151 227.465 132.944 231.947 134.535 231.991C135.555 232.018 135.358 233.907 135.358 233.907L146.726 228.552C146.726 228.552 145.357 219.666 141.094 220.678Z" fill="#B5453C"/>
<path d="M142.494 221.371C142.494 221.371 142.9 216.44 137.952 216.44C137.952 216.44 139.452 216.893 140.227 217.799C140.227 217.799 137.071 215.735 133.637 218.905C130.202 222.074 132.336 230.024 131.292 231.533C130.247 233.043 126.18 233.345 126.677 238.224C127.175 243.104 139.585 249.217 138.788 253.255C138.788 253.255 143.652 245.295 140.174 241.662C140.174 241.662 141.869 243.439 142.042 245.553C142.042 245.553 142.502 241.428 140.144 240.109C138.058 238.941 136.348 234.67 136.529 233.907C136.71 233.144 142.494 221.371 142.494 221.371Z" fill="#B5453C"/>
<path d="M128.595 327.98L126.135 327.577C126.135 327.577 117.864 320.259 116.632 306.604C116.506 305.213 116.48 303.802 116.573 302.38C116.584 302.217 116.568 302.052 116.487 301.915L116.484 301.912C116.22 301.46 115.561 300.327 114.669 298.718C113.789 297.132 112.284 294.132 110.628 290.769C107.646 284.71 104.173 277.463 102.982 275.153C99.1873 267.797 101.017 262.85 101.017 262.85C101.017 262.85 111.604 261.686 114.505 258.861L115.55 260.652C115.55 260.652 117.844 271.96 117.735 272.011C117.848 272.395 117.963 272.787 118.079 273.186C119.89 279.406 121.972 287.182 123.107 293.514C123.745 297.077 124.084 300.18 123.902 302.296C123.839 303.02 123.915 304.135 124.089 305.513C125.114 313.627 128.595 327.98 128.595 327.98Z" fill="#F1A34F"/>
<path d="M133.756 331.444H123.492C123.492 331.444 123.246 329.702 123.782 328.382C124.296 327.114 125.028 327.074 123.876 325.087C124.528 325.833 126.624 326.143 128.108 325.921C128.29 326.249 129.28 328.45 129.888 328.937C130.558 329.473 133.549 329.281 133.756 331.444Z" fill="#233862"/>
<path d="M118.079 273.186C117.183 278.691 115.065 287.852 110.628 290.769C107.646 284.71 104.173 277.463 102.982 275.153C99.1873 267.797 101.017 262.85 101.017 262.85C101.017 262.85 111.604 261.686 114.505 258.861L115.55 260.652C115.55 260.652 117.844 271.96 117.735 272.011C117.848 272.396 117.963 272.787 118.079 273.186Z" fill="#E58435"/>
<path d="M110.881 263.701L110.916 261.564C107.091 262.1 97.7287 256.476 97.7287 256.476C97.7287 256.476 93.7274 259.439 93.1797 267.899C92.9123 272.029 91.2211 289.495 91.034 294.711C90.9656 296.601 90.9431 297.95 90.9354 298.489L90.9359 298.493C90.9336 298.658 90.8642 298.804 90.7733 298.934C89.9818 300.054 89.2954 301.24 88.7009 302.47C82.8649 314.559 85.9168 330.985 85.9168 330.985L87.2719 330.602C87.2719 330.602 92.2068 313.574 95.4318 306.208C95.9792 304.959 96.4764 303.987 96.8925 303.425C98.1051 301.785 99.3837 299 100.644 295.649C103.027 289.312 105.34 280.953 106.989 274.478C107.106 274.502 110.881 263.701 110.881 263.701Z" fill="#F1A34F"/>
<path d="M133.263 249.438C127.01 247.841 131.005 238.059 131.367 238.231C132.233 238.034 134.136 236.341 135.838 233.034L136.068 233.255L139.908 237.003C139.908 237.003 139.02 238.462 138.274 239.889C137.69 241.007 137.194 242.109 137.273 242.486C137.582 242.757 134.93 249.864 133.263 249.438Z" fill="#FFB27D"/>
<path d="M137.21 242.171C137.21 242.171 138.31 244.587 138.896 246.678C139.483 248.77 140.95 255.424 140.95 255.424C140.95 255.424 137.924 259.269 133.713 259.046C133.713 259.046 131.45 255.1 132.247 251.537C133.045 247.974 137.21 242.171 137.21 242.171Z" fill="#5FBA96"/>
<path d="M139.908 237.005C139.908 237.005 139.02 238.46 138.274 239.891C135.886 238.251 135.883 234.961 136.067 233.257L139.908 237.005Z" fill="#ED985F"/>
<path d="M140.014 238.883C140.014 238.883 134.217 235.29 136.282 231.306C138.346 227.321 138.988 224.173 142.777 226.298C146.565 228.422 146.491 230.401 146.092 231.918C145.694 233.435 141.576 239.713 140.014 238.883Z" fill="#FFB27D"/>
<path d="M147.071 229.594C146.806 227.824 145.999 227.656 145.436 227.773C143.295 223.833 139.797 225.37 139.797 225.37C137.929 227.98 135.228 228.426 135.228 228.426C135.228 228.426 135.901 229.819 138.672 230.682C139.519 230.946 140.48 230.785 141.407 230.439C139.484 231.632 137.473 232.09 137.473 232.09C141.125 232.461 144.601 228.744 144.961 228.346C145.13 228.922 145.425 230.128 145.248 231.01C145.008 232.209 144.052 234.379 144.636 234.661C144.636 234.661 147.47 232.247 147.071 229.594Z" fill="#B5453C"/>
<path d="M94.0785 331.444H83.815C83.815 331.444 83.5689 329.702 84.1051 328.382C84.6188 327.114 85.4234 326.538 85.2307 325.004C85.8828 325.751 86.9458 326.589 88.4296 326.366C88.6114 326.695 89.6031 328.45 90.2105 328.937C90.8811 329.473 93.8719 329.281 94.0785 331.444Z" fill="#233862"/>
<path d="M133.999 257.192C132.678 257.704 130.825 257.986 128.929 258.215C126.23 258.544 123.443 258.768 121.984 259.417C121.699 259.542 120.869 259.93 120.037 260.599V260.601C120.037 260.601 120.016 260.616 119.979 260.649C119.704 260.872 119.428 261.132 119.175 261.423C118.788 261.866 118.45 262.384 118.233 262.978C117.698 264.45 118.407 268.532 118.861 270.763C119.044 271.66 118.663 272.588 117.929 273.012C116.903 273.603 115.894 274.149 114.903 274.648C114.851 274.674 114.8 274.7 114.747 274.725C114.757 274.498 114.76 274.273 114.76 274.054C114.761 272.515 114.586 271.233 114.586 271.233C114.342 272.787 113.423 274.465 112.566 275.757C98.7923 281.91 89.169 279.234 89.3266 276.169C89.87 265.528 96.3163 256.475 96.3163 256.475C108.339 240.91 132.659 236.813 132.659 236.813C132.659 236.813 133.823 236.657 135.229 238.537C137.25 241.245 137.351 241.952 137.351 241.952C137.351 241.952 137.885 255.682 133.999 257.192Z" fill="#6EE7B7"/>
<path d="M128.928 258.215C126.229 258.542 123.443 258.767 121.983 259.415C121.387 249.493 125.593 242.028 125.593 242.028C125.593 242.028 128.337 254.46 128.928 258.215Z" fill="#5FBA96"/>
<path d="M118.861 270.763C119.044 271.66 118.663 272.588 117.929 273.012C116.903 273.603 115.894 274.149 114.903 274.648C114.851 274.46 114.803 274.262 114.76 274.053C114.604 273.276 114.532 272.348 114.586 271.233C114.816 266.521 117.698 262.954 119.175 261.423C118.788 261.866 118.45 262.383 118.233 262.978C117.698 264.45 118.407 268.532 118.861 270.763Z" fill="#5FBA96"/>
<path d="M132.659 236.813C132.659 236.813 133.718 235.323 134.433 235.371C134.433 235.371 137.328 239.882 137.351 241.952C137.351 241.952 133.741 236.604 132.659 236.813Z" fill="#5FBA96"/>
<path d="M160.426 280.464C160.426 280.464 158.887 280.495 158.554 280.442C158.229 280.389 157.793 280.232 157.354 280.215C156.924 280.197 156.528 280.352 156.123 280.444C156.062 280.458 156.001 280.464 155.939 280.464H153.387C153.387 280.464 153.131 280.329 152.851 279.827C152.73 279.609 152.713 279.091 152.438 278.921C150.892 277.96 155.006 278.504 155.006 278.504C155.006 278.504 157.588 278.453 157.827 278.65C158.251 279.005 160.522 280.329 160.426 280.464Z" fill="#ED985F"/>
<path d="M153.387 280.466C153.387 280.466 154.954 280.969 155.38 281.291L155.83 281.608C155.83 281.608 156.09 281.284 155.68 280.925C155.464 280.737 154.867 280.182 154.848 279.545C154.828 278.91 153.059 279.467 153.387 280.466Z" fill="#ED985F"/>
<path d="M220.905 307.927C218.55 303.76 212.826 303.992 208.886 304.744H208.881C208.62 304.796 208.368 304.847 208.125 304.9C206.182 305.325 204.833 305.822 204.833 305.822L170.82 284.168L168.647 282.783C168.647 282.783 166.431 269.442 159.541 268.64C159.412 268.624 159.282 268.615 159.149 268.609C152.589 268.309 154.213 278.312 154.552 280.082C154.585 280.255 154.605 280.349 154.605 280.349C154.605 280.349 154.26 280.347 153.71 280.402C151.489 280.627 145.927 281.804 146.292 287.96C146.626 293.598 154.988 294.659 159.406 294.826C161.283 294.897 163.119 295.486 164.745 296.522L195.038 315.809C197.015 317.069 198.672 318.835 199.877 320.936C202.267 325.103 206.966 331.786 211.492 329.47C211.763 329.33 212.019 329.184 212.262 329.03L212.266 329.029C217.766 325.594 216.05 319.165 216.05 319.165C216.05 319.165 224.663 314.573 220.905 307.927Z" fill="#F2CCAA"/>
<path d="M220.905 307.927C218.55 303.76 212.826 303.992 208.886 304.744H208.881C208.464 304.88 208.229 304.966 208.229 304.966L208.125 304.9C206.182 305.325 204.833 305.822 204.833 305.822L170.82 284.168L169.776 283.502C169.076 283.055 168.573 282.325 168.382 281.48C167.618 278.101 165.102 269.286 159.541 268.64C156.219 271.382 158.002 279.492 158.002 279.492C158.002 279.492 156.371 279.481 154.552 280.082C154.275 280.173 153.993 280.281 153.71 280.402C151.561 281.341 149.458 283.242 149.687 287.101C150.016 292.639 158.087 293.763 162.56 293.958C163.166 293.986 163.705 293.995 164.151 293.997C165.054 293.999 165.943 294.266 166.726 294.764L199.494 315.627C200.847 316.489 201.971 317.71 202.763 319.167C203.159 319.895 203.651 320.753 204.221 321.655C206.218 324.823 206.7 329.83 212.262 329.03L212.266 329.028C217.766 325.594 216.05 319.165 216.05 319.165C216.05 319.165 224.663 314.573 220.905 307.927Z" fill="#F9DDBF"/>
<path d="M131.762 240.109C131.762 240.109 124.998 240.852 124.456 245.745C123.914 250.639 130.941 270.567 131.947 272.372C133.779 275.658 144.568 286.92 144.568 286.92L146.556 285.577C146.556 285.577 138.904 271.155 137.719 269.806C135.859 267.687 134.053 241.803 131.762 240.109Z" fill="#FFB27D"/>
<path d="M135.228 249.456C135.228 249.456 135.923 236.84 127.249 239.891C118.576 242.942 128.595 264.64 128.595 264.64C128.595 264.64 133.686 264.36 135.491 259.415L135.228 249.456Z" fill="#6EE7B7"/>
<path d="M146.556 285.577C146.556 285.577 147.676 286.686 148.528 286.92C149.379 287.153 150.347 289.868 150.502 290.256C150.657 290.644 149.689 290.084 149.302 289.424C148.915 288.763 148.65 288.503 148.537 288.648C148.424 288.79 148.605 290.602 149.25 291.607C149.896 292.613 150.283 293.503 149.818 293.446C149.354 293.389 146.592 292.641 146.024 290.774C145.456 288.906 145.873 288.84 144.568 286.92C143.263 284.999 146.556 285.577 146.556 285.577Z" fill="#FFB27D"/>
<path d="M178.883 253.708C178.883 253.708 179.138 253.684 179.527 253.925C179.918 254.044 181.168 254.183 181.412 254.139C181.878 254.055 181.769 254.712 181.426 255.032C181.311 255.14 180.783 255.067 180.628 255.106C181.169 255.949 181.758 257.294 182.277 259.452C182.277 259.452 182.741 261.099 181.268 260.288C180.283 259.745 180.167 259.115 178.791 258.325C177.413 257.536 176.478 256.101 176.58 254.833L176.182 253.464L178.028 252.115L178.883 253.708Z" fill="#FFB27D"/>
<path d="M180.129 205.348C180.129 205.348 171.943 211.718 168.088 229.989C166.92 235.53 175.745 254.458 175.745 254.458C175.745 254.458 178.072 253.832 178.376 252.092C178.376 252.092 175.885 236.694 175.114 233.978C174.686 232.476 183.115 224.025 184.207 219.8C185.298 215.576 180.129 205.348 180.129 205.348Z" fill="#5FBA96"/>
<path d="M169.173 324.966C169.173 324.966 169.513 331.087 170.577 331.175C170.72 331.186 175.973 331.186 175.973 331.186L182.68 331.142C182.68 331.142 182.635 329.343 180.674 328.963C178.715 328.582 175.434 327.048 174.246 324.164C172.996 321.13 169.173 324.966 169.173 324.966Z" fill="#163560"/>
<path d="M168.787 325.39C168.787 325.39 170.825 326.15 172.416 326.15C174.193 326.15 175.806 325.612 175.806 325.612C175.806 325.612 176.19 321.478 178.303 312.374C179.41 307.601 180.992 301.465 183.24 293.839C189.462 272.765 191.354 260.436 191.526 259.269C191.536 259.208 191.54 259.177 191.54 259.177L191.518 259.168L172.393 249.819C172.393 249.819 174.757 278.863 171.742 290.011C171.32 291.568 170.957 293.386 170.648 295.353C168.742 307.462 168.787 325.39 168.787 325.39Z" fill="#F1A34F"/>
<path d="M170.648 295.353L178.302 312.374C179.41 307.601 180.992 301.465 183.24 293.839C189.462 272.765 191.354 260.436 191.526 259.269C191.525 259.234 191.523 259.203 191.518 259.168L172.393 249.819C172.393 249.819 174.757 278.863 171.742 290.011C171.32 291.568 170.957 293.386 170.648 295.353Z" fill="#E58435"/>
<path d="M184.112 324.966C184.112 324.966 184.452 331.087 185.515 331.175C185.657 331.186 190.91 331.186 190.91 331.186L197.618 331.142C197.618 331.142 197.574 329.343 195.613 328.963C193.653 328.582 190.371 327.048 189.184 324.164C187.935 321.13 184.112 324.966 184.112 324.966Z" fill="#163560"/>
<path d="M194.954 250.503C194.954 250.503 195.202 269.325 192.278 292.432C189.353 315.541 190.345 325.35 190.345 325.35C190.345 325.35 188.334 326.077 187.524 326.15C185.458 326.337 183.339 325.61 183.339 325.61C183.339 325.61 179.152 302.494 180.352 290.926C181.552 279.361 174.62 251.237 174.62 251.237L194.954 250.503Z" fill="#F1A34F"/>
<path d="M181.393 206.459L185.126 209.184L190.519 208.066C190.445 207.581 190.088 205.571 189.764 203.75C189.745 203.644 189.725 203.536 189.707 203.432C189.429 201.882 189.189 200.552 189.189 200.552L184.151 198.077L182.272 197.155C182.277 197.188 182.418 198.873 182.438 199.119C182.79 203.49 181.393 206.459 181.393 206.459Z" fill="#FFB27D"/>
<path d="M196.07 251.318C195.993 261.253 195.398 284.492 194.959 284.964C190.312 289.958 169.868 283.595 168.785 278.092C167.704 272.591 172.904 207.538 180.842 204.942C182.489 204.404 191.296 207.573 191.296 207.573C191.296 207.573 192.677 211.596 193.583 216.721C193.693 217.342 193.885 219.214 194.114 221.767C194.339 224.257 194.6 227.399 194.86 230.664C195.146 234.269 195.429 238.026 195.656 241.223C195.823 243.637 195.963 245.729 196.044 247.198C196.076 247.804 196.085 249.283 196.07 251.318Z" fill="#6EE7B7"/>
<path d="M182.816 199.197C183.923 201.284 188.045 203.088 189.764 203.75C189.745 203.644 189.725 203.536 189.707 203.432C189.429 201.882 189.189 200.552 189.189 200.552L184.151 198.077C183.038 198.061 182.359 198.337 182.816 199.197Z" fill="#FCA56B"/>
<path d="M191.089 200.211C191.089 200.211 182.972 203.029 181.473 197.376C179.976 191.722 177.918 188.278 183.037 186.239C188.155 184.2 189.738 186.027 190.65 187.778C191.563 189.529 193.16 199.333 191.089 200.211Z" fill="#FFB27D"/>
<path d="M190.331 187.233C190.331 187.233 189.814 193.812 188.592 193.526C187.371 193.241 186.262 193.03 186.441 195.012C186.62 196.996 188.315 199.285 184.549 199.637C180.781 199.988 175.367 189.174 176.402 187.127C179.387 181.219 194.646 180.026 190.331 187.233Z" fill="#163560"/>
<path d="M189.138 205.084C189.033 205.035 183.097 202.07 182.402 202.327C181.708 202.581 180.842 204.942 180.842 204.942L191.296 207.573C191.296 207.573 190.473 205.71 189.138 205.084Z" fill="#5FBA96"/>
<path d="M223.509 212.426C223.509 208.153 226.621 204.689 230.457 204.689C234.295 204.689 237.407 208.153 237.407 212.426C237.407 216.699 234.295 220.162 230.457 220.162C226.621 220.162 223.509 216.699 223.509 212.426Z" fill="#DFEBFA"/>
<path d="M194.86 230.664C190.08 228.977 184.207 219.799 184.207 219.799L194.114 221.767C194.339 224.257 194.6 227.399 194.86 230.664Z" fill="#5FBA96"/>
<path d="M227.761 216.851C227.761 216.851 227.746 216.568 227.975 216.139C228.092 215.706 228.325 214.43 228.296 214.154C228.2 213.287 228.777 213.462 228.999 214.192C229.048 214.35 229.035 214.769 229.066 214.944C229.837 214.364 231.064 213.744 233.016 213.224C233.016 213.224 234.51 212.752 233.74 214.372C233.227 215.455 232.656 215.568 231.91 217.082C231.162 218.595 229.849 219.6 228.711 219.452L227.47 219.856L226.307 217.761L227.761 216.851Z" fill="#FFB27D"/>
<path d="M183.849 210.049C183.849 210.049 173.516 224.759 205.276 229.112C210.356 229.81 228.351 220.372 228.351 220.372C228.351 220.372 227.852 217.759 226.295 217.371C226.295 217.371 209.309 219.368 208.01 220.405C206.858 221.326 194.265 211.03 190.497 209.698C186.728 208.364 183.849 210.049 183.849 210.049Z" fill="#6EE7B7"/>
<path d="M249.679 330.643H230.664C229.966 330.643 229.369 330.092 229.241 329.329C228.756 326.467 227.955 319.663 230.505 316.202C232.515 313.475 238.843 314.09 243.443 314.978C248.265 320.808 249.679 330.643 249.679 330.643Z" fill="#FFDABB"/>
<path d="M496.707 331.874H36.2914C36.0016 331.874 35.7647 331.611 35.7647 331.289V331.078C35.7647 330.756 36.0016 330.493 36.2914 330.493H496.707C496.996 330.493 497.233 330.756 497.233 331.078V331.289C497.233 331.611 496.996 331.874 496.707 331.874Z" fill="#2E3552"/>
</svg>
